<svg xmlns="http://www.w3.org/2000/svg" width="40" height="40" viewBox="0 0 40 40">
  <defs>
    <style>
      .cls-1 {
        fill: #0066f5;
      }
    </style>
  </defs>
  <path id="ic_call_24px" class="cls-1" d="M11.045,20.311A33.664,33.664,0,0,0,25.689,34.956l4.889-4.889a2.21,2.21,0,0,1,2.267-.533A25.349,25.349,0,0,0,40.778,30.8,2.229,2.229,0,0,1,43,33.023v7.756A2.229,2.229,0,0,1,40.778,43,37.775,37.775,0,0,1,3,5.222,2.229,2.229,0,0,1,5.222,3H13a2.229,2.229,0,0,1,2.222,2.222,25.246,25.246,0,0,0,1.267,7.933,2.23,2.23,0,0,1-.556,2.267Z" transform="translate(-3 -3)"/>
</svg>
