<svg xmlns="http://www.w3.org/2000/svg" width="40" height="40" viewBox="0 0 40 40">
    <path id="prefix__ic_call_24px" fill="#0066f5" d="M11.045 20.311a33.664 33.664 0 0 0 14.644 14.645l4.889-4.889a2.21 2.21 0 0 1 2.267-.533 25.349 25.349 0 0 0 7.933 1.266A2.229 2.229 0 0 1 43 33.023v7.756A2.229 2.229 0 0 1 40.778 43 37.775 37.775 0 0 1 3 5.222 2.229 2.229 0 0 1 5.222 3H13a2.229 2.229 0 0 1 2.222 2.222 25.246 25.246 0 0 0 1.267 7.933 2.23 2.23 0 0 1-.556 2.267z" transform="translate(-3 -3)"/>
</svg>
