<svg id="Capa_1" enable-background="new 0 0 512.013 512.013" height="512" viewBox="0 0 512.013 512.013" width="512" xmlns="http://www.w3.org/2000/svg"><g><path d="m400.007 193.013h-14.375l-83.99-184.25c-2.306-5.032-7.208-8.349-12.609-8.713-.619-.043-65.178-.118-66.799.077-4.936.578-9.282 3.591-11.553 8.019-.389.752-30.233 66.259-84.3 184.867h-14.374c-8.284 0-15 6.716-15 15v259c0 24.813 20.187 45 45 45h228c24.813 0 45-20.187 45-45v-259c0-8.284-6.716-15-15-15zm-144.001-71.179 32.625 71.18h-65.249zm16.501-36.001 15.5-33.817 64.624 140.998h-30.999zm-38.875-55.82h30.999l-74.25 163h-30.999zm22.375 371c-9.374 0-17-7.626-17-17v-26l8 6c5.334 4.001 12.667 4.001 18 0l8-6v26c0 9.374-7.626 17-17 17zm114 81h-84.7c5.48-3.556 13.031-7.299 23.443-10.77 7.859-2.62 12.106-11.114 9.487-18.974-2.62-7.859-11.115-12.108-18.974-9.487-11.56 3.854-20.827 8.246-28.257 12.826v-27.064c18.58-6.275 32-23.86 32-44.531v-56c0-12.332-14.12-19.407-24-12l-23 17.25-23-17.25c-9.865-7.399-24-.349-24 12v56c0 20.671 13.42 38.256 32 44.531v53.469h-99c-8.271 0-15-6.729-15-15v-180h33c8.284 0 15-6.716 15-15s-6.716-15-15-15h-33v-34h258v34h-33c-8.284 0-15 6.716-15 15s6.716 15 15 15h33v180c.001 8.272-6.728 15-14.999 15z"/><path d="m280.007 257.013h-48c-8.284 0-15 6.716-15 15s6.716 15 15 15h48c8.284 0 15-6.716 15-15s-6.716-15-15-15z"/></g></svg>